<svg width="58" height="50" viewBox="0 0 58 50" fill="none" xmlns="http://www.w3.org/2000/svg">
<path d="M53.5405 43.8909H4.31172C3.31216 43.8827 2.35619 43.4429 1.6526 42.6675C0.949021 41.8922 0.555014 40.8442 0.556646 39.7526V38.083C0.555015 36.9915 0.949055 35.9437 1.65267 35.1685C2.35628 34.3933 3.31226 33.9537 4.31172 33.9458H53.5405C54.5401 33.9537 55.4962 34.3932 56.1999 35.1684C56.9037 35.9436 57.298 36.9914 57.2966 38.083V39.7526C57.2982 40.8444 56.9041 41.8925 56.2003 42.6679C55.4965 43.4433 54.5403 43.883 53.5405 43.8909Z" fill="#8E4C2E"/>
<path d="M0.754249 36.3901C1.09118 37.1675 1.6285 37.8207 2.30035 38.2696C2.9722 38.7185 3.74939 38.9436 4.53664 38.9172C7.83435 38.9172 7.83435 34.7624 11.1321 34.7624C14.4298 34.7624 14.4298 38.9172 17.7285 38.9172C21.0272 38.9172 21.0262 34.7624 24.3239 34.7624C27.6216 34.7624 27.6226 38.9172 30.9213 38.9172C34.22 38.9172 34.218 34.7624 37.5147 34.7624C40.8114 34.7624 40.8144 38.9172 44.1142 38.9172C47.4139 38.9172 47.4159 34.7646 50.7167 34.7624C53.1017 34.7624 54.0559 38.6962 56.3386 37.5404C58.6214 36.3845 57.0581 31.707 55.1507 31.707H3.42054C2.90191 31.6656 2.38279 31.7799 1.91936 32.0375C1.45592 32.2951 1.06581 32.6862 0.791232 33.1685C0.516656 33.6507 0.368071 34.2058 0.361552 34.7736C0.355034 35.3415 0.49083 35.9004 0.754249 36.3901" fill="#9DEC00"/>
<path d="M56.1197 20.0447C56.0801 19.591 55.9991 19.1427 55.8778 18.7066C55.6495 17.8898 55.3675 17.0921 55.0339 16.3198C54.3119 14.6643 53.4069 13.1116 52.3393 11.6964C49.9166 8.51328 46.9316 5.89574 43.5623 3.99997C39.8194 1.84981 35.7184 0.544641 31.5038 0.162259C30.6585 0.0885916 29.8116 0.0517578 28.9629 0.0517578C24.6852 0.0576748 20.4535 1.01687 16.527 2.87064C12.9572 4.52922 9.72117 6.9386 7.0032 9.96151C4.62838 12.5185 2.88236 15.6881 1.92661 19.1773C1.67532 20.0885 1.6343 21.0535 1.80721 21.9863C1.87306 22.4775 2.10541 22.9239 2.45827 23.237C2.81112 23.5501 3.25876 23.7071 3.71257 23.6769H54.2174C54.4564 23.6946 54.6963 23.6592 54.9225 23.5727C55.1486 23.4863 55.3564 23.3506 55.5332 23.174C55.7099 22.9974 55.8521 22.7834 55.951 22.5451C56.0499 22.3067 56.1035 22.049 56.1086 21.7874C56.1627 21.2082 56.1674 20.6248 56.1227 20.0447" fill="#FFDB2E"/>
<path d="M54.9779 31.707H2.87641C2.26269 31.7012 1.67591 31.4308 1.24382 30.9548C0.811731 30.4788 0.569313 29.8357 0.569336 29.1655L0.569336 26.2195C0.569313 25.5493 0.811731 24.9061 1.24382 24.4301C1.67591 23.9541 2.26269 23.6838 2.87641 23.678H54.9779C55.5917 23.6838 56.1784 23.9541 56.6105 24.4301C57.0426 24.9061 57.285 25.5493 57.285 26.2195V29.1655C57.285 29.8357 57.0426 30.4788 56.6105 30.9548C56.1784 31.4308 55.5917 31.7012 54.9779 31.707" fill="#8E4C2E"/>
<path d="M54.9779 49.5884H2.87641C2.26269 49.5826 1.67591 49.3123 1.24382 48.8363C0.811731 48.3603 0.569313 47.7172 0.569336 47.0469L0.569336 46.4314C0.569313 45.7612 0.811731 45.1181 1.24382 44.6421C1.67591 44.1661 2.26269 43.8957 2.87641 43.8899H54.9779C55.5917 43.8957 56.1784 44.1661 56.6105 44.6421C57.0426 45.1181 57.285 45.7612 57.285 46.4314V47.0469C57.285 47.7172 57.0426 48.3603 56.6105 48.8363C56.1784 49.3123 55.5917 49.5826 54.9779 49.5884" fill="#FFDB2E"/>
<path d="M38.49 7.58461C38.4884 7.84648 38.4158 8.10198 38.2814 8.31888C38.147 8.53577 37.9568 8.70435 37.7348 8.80336C37.5128 8.90237 37.2689 8.92737 37.0339 8.87521C36.7989 8.82305 36.5833 8.69607 36.4143 8.51028C36.2453 8.32449 36.1305 8.0882 36.0843 7.83123C36.0381 7.57425 36.0626 7.30809 36.1547 7.0663C36.2469 6.82452 36.4025 6.61795 36.602 6.47263C36.8015 6.32731 37.0359 6.24976 37.2757 6.24976C37.4359 6.24975 37.5944 6.28434 37.7423 6.35153C37.8901 6.41872 38.0243 6.51719 38.1372 6.64126C38.2501 6.76533 38.3393 6.91255 38.3999 7.07445C38.4604 7.23635 38.491 7.40973 38.49 7.58461" fill="white"/>
<path d="M27.5496 8.1559C27.548 8.41778 27.4754 8.67328 27.341 8.89018C27.2066 9.10707 27.0164 9.27566 26.7944 9.37466C26.5724 9.47367 26.3285 9.49868 26.0935 9.44652C25.8585 9.39436 25.6429 9.26737 25.4739 9.08158C25.3049 8.89579 25.19 8.6595 25.1438 8.40252C25.0976 8.14554 25.1222 7.87938 25.2143 7.6376C25.3064 7.39581 25.4621 7.18924 25.6616 7.04392C25.8611 6.8986 26.0955 6.82105 26.3353 6.82104C26.4955 6.82104 26.654 6.85563 26.8019 6.92282C26.9497 6.99001 27.0839 7.08848 27.1968 7.21255C27.3097 7.33662 27.3989 7.48384 27.4595 7.64574C27.52 7.80765 27.5506 7.98103 27.5496 8.1559" fill="white"/>
<path d="M32.9666 13.2003C32.965 13.4622 32.8924 13.7177 32.758 13.9346C32.6236 14.1515 32.4334 14.3201 32.2114 14.4191C31.9894 14.5181 31.7455 14.5431 31.5105 14.4909C31.2755 14.4388 31.0599 14.3118 30.8909 14.126C30.7219 13.9402 30.607 13.7039 30.5608 13.4469C30.5146 13.19 30.5391 12.9238 30.6313 12.682C30.7234 12.4402 30.8791 12.2337 31.0786 12.0884C31.2781 11.943 31.5125 11.8655 31.7523 11.8655C31.9125 11.8655 32.071 11.9001 32.2189 11.9673C32.3667 12.0344 32.5009 12.1329 32.6138 12.257C32.7267 12.381 32.8159 12.5283 32.8765 12.6902C32.937 12.8521 32.9676 13.0254 32.9666 13.2003" fill="white"/>
<path d="M25.1374 18.4447C25.1358 18.7066 25.0633 18.9621 24.9289 19.179C24.7945 19.3959 24.6043 19.5644 24.3823 19.6635C24.1603 19.7625 23.9164 19.7875 23.6814 19.7353C23.4464 19.6831 23.2308 19.5562 23.0618 19.3704C22.8928 19.1846 22.7779 18.9483 22.7317 18.6913C22.6855 18.4343 22.71 18.1682 22.8022 17.9264C22.8943 17.6846 23.0499 17.4781 23.2495 17.3327C23.449 17.1874 23.6834 17.1099 23.9232 17.1099C24.0833 17.1099 24.2419 17.1444 24.3897 17.2116C24.5376 17.2788 24.6718 17.3773 24.7847 17.5014C24.8975 17.6254 24.9868 17.7727 25.0473 17.9346C25.1079 18.0965 25.1385 18.2698 25.1374 18.4447" fill="white"/>
<path d="M20.7195 6.24866C20.7179 6.51054 20.6453 6.76603 20.5109 6.98293C20.3765 7.19982 20.1863 7.3684 19.9643 7.46741C19.7423 7.56642 19.4984 7.59142 19.2634 7.53926C19.0284 7.4871 18.8128 7.36012 18.6438 7.17433C18.4748 6.98854 18.36 6.75225 18.3138 6.49528C18.2676 6.2383 18.2921 5.97214 18.3842 5.73036C18.4764 5.48858 18.632 5.28201 18.8315 5.13669C19.031 4.99138 19.2654 4.91382 19.5052 4.91382C19.6654 4.91381 19.8239 4.9484 19.9718 5.01559C20.1196 5.08278 20.2539 5.18125 20.3667 5.30532C20.4796 5.42938 20.5688 5.57661 20.6294 5.73851C20.6899 5.90041 20.7206 6.07379 20.7195 6.24866" fill="white"/>
<path d="M46.4656 11.8654C46.464 12.1273 46.3914 12.3828 46.257 12.5996C46.1226 12.8165 45.9324 12.9851 45.7104 13.0841C45.4884 13.1831 45.2445 13.2081 45.0095 13.156C44.7745 13.1038 44.5589 12.9768 44.3899 12.7911C44.2209 12.6053 44.1061 12.369 44.0599 12.112C44.0137 11.855 44.0382 11.5889 44.1303 11.3471C44.2224 11.1053 44.3781 10.8987 44.5776 10.7534C44.7771 10.6081 45.0115 10.5305 45.2513 10.5305C45.4115 10.5305 45.57 10.5651 45.7179 10.6323C45.8657 10.6995 46 10.7979 46.1128 10.922C46.2257 11.0461 46.315 11.1933 46.3755 11.3552C46.436 11.5171 46.4667 11.6905 46.4656 11.8654" fill="white"/>
<path d="M41.5965 17.1098C41.5949 17.3716 41.5223 17.6271 41.3879 17.844C41.2535 18.0609 41.0633 18.2295 40.8413 18.3285C40.6193 18.4275 40.3754 18.4525 40.1404 18.4004C39.9054 18.3482 39.6898 18.2212 39.5208 18.0354C39.3518 17.8496 39.2369 17.6134 39.1907 17.3564C39.1445 17.0994 39.169 16.8332 39.2612 16.5915C39.3533 16.3497 39.5089 16.1431 39.7084 15.9978C39.908 15.8525 40.1424 15.7749 40.3822 15.7749C40.5423 15.7749 40.7009 15.8095 40.8488 15.8767C40.9966 15.9439 41.1308 16.0423 41.2437 16.1664C41.3566 16.2905 41.4458 16.4377 41.5064 16.5996C41.5669 16.7615 41.5975 16.9349 41.5965 17.1098" fill="white"/>
<path d="M52.8445 17.1098C52.8429 17.3716 52.7703 17.6271 52.6359 17.844C52.5015 18.0609 52.3113 18.2295 52.0893 18.3285C51.8673 18.4275 51.6234 18.4525 51.3884 18.4004C51.1534 18.3482 50.9378 18.2212 50.7688 18.0354C50.5998 17.8496 50.485 17.6134 50.4388 17.3564C50.3926 17.0994 50.4171 16.8332 50.5092 16.5915C50.6014 16.3497 50.757 16.1431 50.9565 15.9978C51.156 15.8525 51.3904 15.7749 51.6302 15.7749C51.7904 15.7749 51.9489 15.8095 52.0968 15.8767C52.2446 15.9439 52.3789 16.0423 52.4917 16.1664C52.6046 16.2905 52.6938 16.4377 52.7544 16.5996C52.8149 16.7615 52.8456 16.9349 52.8445 17.1098" fill="white"/>
<path d="M19.5076 11.8654C19.506 12.1273 19.4334 12.3828 19.299 12.5996C19.1646 12.8165 18.9744 12.9851 18.7524 13.0841C18.5304 13.1831 18.2865 13.2081 18.0515 13.156C17.8165 13.1038 17.6009 12.9768 17.4319 12.7911C17.2629 12.6053 17.148 12.369 17.1018 12.112C17.0556 11.855 17.0802 11.5889 17.1723 11.3471C17.2644 11.1053 17.4201 10.8987 17.6196 10.7534C17.8191 10.6081 18.0535 10.5305 18.2933 10.5305C18.4535 10.5305 18.612 10.5651 18.7599 10.6323C18.9077 10.6995 19.0419 10.7979 19.1548 10.922C19.2677 11.0461 19.3569 11.1933 19.4175 11.3552C19.478 11.5171 19.5086 11.6905 19.5076 11.8654" fill="white"/>
<path d="M8.67749 18.4447C8.67589 18.7066 8.60332 18.9621 8.46893 19.179C8.33454 19.3959 8.14435 19.5644 7.92233 19.6635C7.70032 19.7625 7.45644 19.7875 7.22143 19.7353C6.98643 19.6831 6.77083 19.5562 6.60182 19.3704C6.43281 19.1846 6.31797 18.9483 6.27177 18.6913C6.22557 18.4343 6.25008 18.1682 6.34222 17.9264C6.43436 17.6846 6.58999 17.4781 6.78949 17.3327C6.989 17.1874 7.22343 17.1099 7.46324 17.1099C7.62338 17.1099 7.78194 17.1444 7.92979 17.2116C8.07764 17.2788 8.21186 17.3773 8.32472 17.5014C8.43758 17.6254 8.52685 17.7727 8.5874 17.9346C8.64794 18.0965 8.67856 18.2698 8.67749 18.4447" fill="white"/>
<path d="M13.3738 11.8654C13.3722 12.1273 13.2996 12.3828 13.1652 12.5996C13.0308 12.8165 12.8406 12.9851 12.6186 13.0841C12.3966 13.1831 12.1527 13.2081 11.9177 13.156C11.6827 13.1038 11.4671 12.9768 11.2981 12.7911C11.1291 12.6053 11.0143 12.369 10.9681 12.112C10.9219 11.855 10.9464 11.5889 11.0385 11.3471C11.1306 11.1053 11.2863 10.8987 11.4858 10.7534C11.6853 10.6081 11.9197 10.5305 12.1595 10.5305C12.3197 10.5305 12.4782 10.5651 12.6261 10.6323C12.7739 10.6995 12.9082 10.7979 13.021 10.922C13.1339 11.0461 13.2231 11.1933 13.2837 11.3552C13.3442 11.5171 13.3748 11.6905 13.3738 11.8654" fill="white"/>
</svg>
