<svg id="Group_622" data-name="Group 622" xmlns="http://www.w3.org/2000/svg" width="26.385" height="26.38" viewBox="0 0 26.385 26.38">
  <path id="Path_2812" data-name="Path 2812" d="M-307.745-874.941V-887.1a.226.226,0,0,0,.025-.045,1.953,1.953,0,0,1,2.125-1.591q3.941,0,7.883,0a1.94,1.94,0,0,1,2.064,2.065c0,1.022,0,2.043,0,3.065q0,4.108,0,8.216a1.925,1.925,0,0,1-1.108,1.856,4.392,4.392,0,0,1-.528.19H-306.1a2.015,2.015,0,0,1-1.412-1.01A5.994,5.994,0,0,1-307.745-874.941Z" transform="translate(307.745 899.724)" fill="#9e9e9e"/>
  <path id="Path_2813" data-name="Path 2813" d="M-307.745-1050.186c.029-.078.061-.156.087-.236a1.9,1.9,0,0,1,1.808-1.358q4.148-.01,8.3,0a1.892,1.892,0,0,1,1.9,1.908q.035,2.485,0,4.971a1.884,1.884,0,0,1-1.926,1.908q-4.122.025-8.244,0a1.893,1.893,0,0,1-1.872-1.511.979.979,0,0,0-.047-.118Z" transform="translate(307.745 1051.785)" fill="#9e9e9e"/>
  <path id="Path_2814" data-name="Path 2814" d="M-94.218-782.1c-.122-.039-.245-.073-.364-.117a1.9,1.9,0,0,1-1.266-1.8c-.015-1.657-.022-3.314,0-4.97a1.908,1.908,0,0,1,2.006-1.909c1.863-.006,3.726,0,5.59,0,.816,0,1.631,0,2.447,0a1.932,1.932,0,0,1,2.046,2.053q0,2.3,0,4.61a1.935,1.935,0,0,1-1.6,2.109.228.228,0,0,0-.045.024Z" transform="translate(110.141 808.479)" fill="#9e9e9e"/>
  <path id="Path_2815" data-name="Path 2815" d="M-83.656-1044.066q0,2.819,0,5.639a1.934,1.934,0,0,1-2.063,2.063q-3.979,0-7.958,0a1.943,1.943,0,0,1-2.075-2.08q0-5.613,0-11.226a1.939,1.939,0,0,1,2.093-2.085h7.932a1.93,1.93,0,0,1,2.071,2.076Q-83.655-1046.873-83.656-1044.066Z" transform="translate(110.04 1051.757)" fill="#9e9e9e"/>
</svg>
