<svg xmlns="http://www.w3.org/2000/svg" width="30" height="17.5" viewBox="0 0 30 17.5">
  <path id="Icon_material-motorcycle" data-name="Icon material-motorcycle" d="M24.3,12.537,19.262,7.5H13.75V10h4.487l2.5,2.5H6.25a6.25,6.25,0,0,0,0,12.5,6.164,6.164,0,0,0,6.125-5h2.063L17.9,16.537a6.1,6.1,0,0,0-.4,2.213,6.25,6.25,0,1,0,6.8-6.213ZM9.775,20A3.805,3.805,0,0,1,6.25,22.5a3.75,3.75,0,0,1,0-7.5,3.805,3.805,0,0,1,3.525,2.5H6.25V20ZM23.75,22.5a3.75,3.75,0,1,1,3.75-3.75A3.745,3.745,0,0,1,23.75,22.5Z" transform="translate(0 -7.5)" fill="#939393"/>
</svg>
