<svg id="Group_623" data-name="Group 623" xmlns="http://www.w3.org/2000/svg" width="25.708" height="25.659" viewBox="0 0 25.708 25.659">
  <path id="Path_2816" data-name="Path 2816" d="M-791.879-991.34h-1.844v-.293q0-3.439,0-6.877a1.845,1.845,0,0,1,1.981-1.987h5.338c.025-.7.042-1.372.076-2.046a26.035,26.035,0,0,1,.812-5.4,1,1,0,0,1,1.169-.8,1.008,1.008,0,0,1,.677,1.3,26.071,26.071,0,0,0-.876,7.053c-.013,2.894,0,5.788-.005,8.682v.361h-1.832v-5.469h-5.5Z" transform="translate(809.332 1016.986)" fill="#9e9e9e"/>
  <path id="Path_2817" data-name="Path 2817" d="M-987.457-990.228h-1.677a1.18,1.18,0,0,1-.127-.016v-5.464h-5.5v5.467h-1.84v-.326c0-2.875.007-5.749-.005-8.624a25.712,25.712,0,0,0-.888-7.193.927.927,0,0,1,.6-1.168.948.948,0,0,1,1.144.729,28.071,28.071,0,0,1,.881,7.111c0,.464-.039.408.422.408q2.622,0,5.243-.007a1.71,1.71,0,0,1,1.767,1.691c.014,2.426.005,4.851,0,7.277A.819.819,0,0,1-987.457-990.228Z" transform="translate(997.539 1015.886)" fill="#9e9e9e"/>
  <path id="Path_2818" data-name="Path 2818" d="M-920.918-957.89h-16.466c0-.676-.025-1.342.009-2.005a.8.8,0,0,1,.765-.727,2.891,2.891,0,0,1,.315-.007H-922c.826,0,1.115.291,1.115,1.122q0,.773,0,1.547A.305.305,0,0,1-920.918-957.89Z" transform="translate(941.999 972.532)" fill="#9e9e9e"/>
  <path id="Path_2819" data-name="Path 2819" d="M-889.354-1107.828a4.6,4.6,0,0,1,3.645-4.481v-3.732h1.832v3.71a4.716,4.716,0,0,1,3.7,4.5Z" transform="translate(897.641 1116.041)" fill="#9e9e9e"/>
  <path id="Path_2820" data-name="Path 2820" d="M-847.364-912.537h2.718v10.053h-2.718Z" transform="translate(858.864 928.121)" fill="#9e9e9e"/>
</svg>
