<svg width="25" height="27" viewBox="0 0 25 27" fill="none" xmlns="http://www.w3.org/2000/svg">
<path d="M11.1069 0.816258L2.15889 7.52729C1.41322 8.094 0.96582 8.97389 0.96582 9.91343V23.3355C0.96582 24.976 2.30803 26.3182 3.9485 26.3182H21.8446C23.4851 26.3182 24.8273 24.976 24.8273 23.3355V9.91343C24.8273 8.97389 24.3799 8.094 23.6342 7.52729L14.6862 0.816258C13.6273 0.0258471 12.1658 0.0258471 11.1069 0.816258ZM13.6422 13.6418C13.6422 14.8796 12.643 15.8788 11.4052 15.8788V21.0985C11.4052 21.5161 11.0771 21.8442 10.6595 21.8442C10.242 21.8442 9.91386 21.5161 9.91386 21.0985V15.8788C8.67605 15.8788 7.67685 14.8796 7.67685 13.6418V9.91343C7.67685 9.49586 8.00495 9.16776 8.42252 9.16776C8.8401 9.16776 9.16819 9.49586 9.16819 9.91343V13.6418H9.91386V9.91343C9.91386 9.49586 10.242 9.16776 10.6595 9.16776C11.0771 9.16776 11.4052 9.49586 11.4052 9.91343V13.6418H12.1509V9.91343C12.1509 9.49586 12.479 9.16776 12.8965 9.16776C13.3141 9.16776 13.6422 9.49586 13.6422 9.91343V13.6418ZM16.6249 21.8442C16.2073 21.8442 15.8792 21.5161 15.8792 21.0985V16.6245H15.1336C14.716 16.6245 14.3879 16.2964 14.3879 15.8788V12.1504C14.3879 10.8381 15.2379 9.71956 16.4161 9.33181C16.8784 9.16776 17.3706 9.5406 17.3706 10.0477V21.0985C17.3706 21.5161 17.0425 21.8442 16.6249 21.8442Z" fill="#592C82"/>
</svg>
