<svg id="chair-svgrepo-com_1_" data-name="chair-svgrepo-com (1)" xmlns="http://www.w3.org/2000/svg" width="13.185" height="10.212" viewBox="0 0 13.185 10.212">
  <path id="Path_1" data-name="Path 1" d="M13.17,15.617,10.958,9.349a.258.258,0,0,0,.159-.238V7.56H11.5a.9.9,0,0,0,0-1.81H1.68a.9.9,0,0,0,0,1.81h.388V9.111a.258.258,0,0,0,.159.238L.014,15.617A.259.259,0,0,0,.5,15.79l2.266-6.42h7.649l2.266,6.42a.259.259,0,0,0,.244.172.264.264,0,0,0,.086-.015A.258.258,0,0,0,13.17,15.617ZM10.6,8.852Z" transform="translate(0 -5.75)" fill="#a7a7a7"/>
</svg>
