<svg width="45" height="60" viewBox="0 0 45 60" fill="none" xmlns="http://www.w3.org/2000/svg">
<path d="M2.00293 14.9292L2.40768 17.0774L44.097 8.56879L43.4898 5.36426L2.00293 14.9292Z" fill="#EF5B5B"/>
<path d="M8.98519 10.9026C9.7016 14.9116 7.52202 15.3878 8.23843 19.3968C8.95483 23.4058 11.1344 22.9328 11.8508 26.9451C12.5672 30.9574 10.3887 31.4326 11.1051 35.4438" stroke="#FAB087" stroke-width="1.6" stroke-miterlimit="10"/>
<path d="M12.1512 10.2122C12.8676 14.2211 10.688 14.6974 11.4044 18.7064C12.1208 22.7154 14.3004 22.2424 15.0168 26.2547C15.7332 30.267 13.5547 30.7411 14.2711 34.7534" stroke="#FAB087" stroke-width="1.6" stroke-miterlimit="10"/>
<path d="M15.3182 9.52026C16.0346 13.5292 13.855 14.0055 14.5714 18.0145C15.2879 22.0235 17.4675 21.5505 18.1839 25.5628C18.9003 29.5751 16.7207 30.0503 17.4381 34.0615" stroke="#FAB087" stroke-width="1.6" stroke-miterlimit="10"/>
<path d="M18.4842 8.82959C19.2006 12.8386 17.021 13.3148 17.7375 17.3238C18.4539 21.3328 20.6334 20.8598 21.3498 24.8721C22.0662 28.8844 19.8877 29.3585 20.6041 33.3708" stroke="#FAB087" stroke-width="1.6" stroke-miterlimit="10"/>
<path d="M21.6512 8.13916C22.3676 12.1481 20.188 12.6244 20.9044 16.6334C21.6209 20.6424 23.8004 20.1694 24.5169 24.1817C25.2333 28.194 23.0547 28.6681 23.7711 32.6804" stroke="#FAB087" stroke-width="1.6" stroke-miterlimit="10"/>
<path d="M24.8172 7.44727C25.5336 11.4562 23.3541 11.9325 24.0705 15.9415C24.7869 19.9505 26.9664 19.4775 27.6828 23.4898C28.3993 27.5021 26.2207 27.9762 26.9371 31.9885" stroke="#FAB087" stroke-width="1.6" stroke-miterlimit="10"/>
<path d="M11.2666 38.0153H0.71875L3.18065 29.0791H11.2655L11.2666 38.0153Z" fill="#EF5B5B"/>
<path d="M18.3699 59.268H6.4935L3.20996 29.0791H18.3699V59.268Z" fill="#FFDB2E"/>
<path d="M18.3711 59.268H31.8887L35.1682 29.0791H18.3711V59.268Z" fill="#EF5B5B"/>
<path d="M38.6714 38.0153H21.4209L18.3701 29.0791H35.6216L38.6714 38.0153Z" fill="white"/>
<path d="M42.5916 0.570801L1.29688 11.1789L1.70163 13.3326L43.1957 3.77533L42.5916 0.570801Z" fill="#EF5B5B"/>
</svg>
