<svg width="30" height="27" viewBox="0 0 30 27" fill="none" xmlns="http://www.w3.org/2000/svg">
<path d="M20.1856 26.9142L17.9428 7.47615H21.2771L19.5875 0.687806L22.1892 0L24.0583 7.47615H29.9046L27.6618 26.9142H20.1856ZM4.48569 11.9618H11.9618C13.1515 11.9618 14.2925 12.4344 15.1337 13.2757C15.9749 14.1169 16.4475 15.2579 16.4475 16.4475H0C0 15.2579 0.472599 14.1169 1.31383 13.2757C2.15506 12.4344 3.29601 11.9618 4.48569 11.9618ZM16.4475 22.4285C16.4475 23.6181 15.9749 24.7591 15.1337 25.6003C14.2925 26.4416 13.1515 26.9142 11.9618 26.9142H4.48569C3.29601 26.9142 2.15506 26.4416 1.31383 25.6003C0.472599 24.7591 0 23.6181 0 22.4285H16.4475ZM1.49523 17.9428H8.97139L11.2142 20.1856L13.4571 17.9428H14.9523C15.3489 17.9428 15.7292 18.1003 16.0096 18.3807C16.29 18.6611 16.4475 19.0414 16.4475 19.438C16.4475 19.8346 16.29 20.2149 16.0096 20.4953C15.7292 20.7757 15.3489 20.9332 14.9523 20.9332H1.49523C1.09867 20.9332 0.718353 20.7757 0.437943 20.4953C0.157533 20.2149 0 19.8346 0 19.438C0 19.0414 0.157533 18.6611 0.437943 18.3807C0.718353 18.1003 1.09867 17.9428 1.49523 17.9428Z" fill="black"/>
</svg>
