<svg xmlns="http://www.w3.org/2000/svg" width="39.185" height="39.642" viewBox="0 0 39.185 39.642">
  <g id="Group_8763" data-name="Group 8763" transform="translate(-1122.907 -294.679)">
    <g id="Group_765" data-name="Group 765" transform="translate(2324.408 549.206)">
      <path id="Path_2895" data-name="Path 2895" d="M-1193.9-256v2.264h-6.783v6.809h-2.272V-256Z" transform="translate(1.456 1.473)" fill="#2f79f5"/>
      <path id="Path_2896" data-name="Path 2896" d="M-802.669-256v9.048h-2.25v-6.759h-6.805V-256Z" transform="translate(-359.647 1.473)" fill="#2f79f5"/>
      <path id="Path_2897" data-name="Path 2897" d="M-1202.957,136h2.259v6.8h6.8v2.277h-9.055Z" transform="translate(1.456 -359.958)" fill="#2f79f5"/>
      <path id="Path_2898" data-name="Path 2898" d="M-811.724,145.438v-2.262h6.779V136.4h2.277v9.043Z" transform="translate(-359.647 -360.323)" fill="#2f79f5"/>
      <path id="Path_2899" data-name="Path 2899" d="M-932.546,18.493V16.227h6.812V13.933l-.011.01h2.281l-.011-.01V16.2h4.525V27.568h-11.32V23.056h-2.276v-2.3l-.011.01h2.249V18.483h-2.249Zm11.331.022h-6.765v6.778h6.765Z" transform="translate(-247.946 -247.121)" fill="#fff"/>
      <path id="Path_2900" data-name="Path 2900" d="M-1139.454-2.047V-4.331l-.011.01h2.25V-8.881h-2.25l.011.01v-2.27h2.243V-13.4h-4.491v-2.273h11.319v2.256l.011-.01h-4.521V-6.6h2.25l-.011-.01v2.271h-2.244v2.254h4.509V-4.3h2.261v2.241h2.269V.206h-11.313V-2.057h-2.293Z" transform="translate(-55.212 -219.757)" fill="#fff"/>
      <path id="Path_2901" data-name="Path 2901" d="M-1128.205-191.235h-2.265v6.81h-11.343v-11.336h11.316v2.264h2.293l-.011-.011v2.284Zm-4.573,4.54v-6.778h-6.764v6.778Z" transform="translate(-55.11 -54.264)" fill="#fff"/>
      <path id="Path_2902" data-name="Path 2902" d="M-897.737-182.107v-2.271h-4.526v-11.366h11.3V-184.4h-4.516v2.3l.011-.01h-2.281Zm4.519-11.353h-6.765v6.777h6.765Z" transform="translate(-275.943 -54.281)" fill="#fff"/>
      <path id="Path_2903" data-name="Path 2903" d="M-953.394-41.12l-9.093,0,.011.011v-4.527h2.257v2.253h6.826l-.011-.01v2.286Z" transform="translate(-220.498 -192.568)" fill="#fff"/>
      <path id="Path_2904" data-name="Path 2904" d="M-962.516-136.071h2.251v4.521h-2.24v-4.531Z" transform="translate(-220.535 -109.169)" fill="#fff"/>
      <path id="Path_2905" data-name="Path 2905" d="M-812.8-16.06h4.52v2.265h-4.52l.011.01V-16.07Z" transform="translate(-358.622 -219.863)" fill="#fff"/>
      <path id="Path_2906" data-name="Path 2906" d="M-1020.117,43.933v4.55h-2.271l.011.01v-4.55h2.271Z" transform="translate(-165.272 -275.16)" fill="#fff"/>
      <path id="Path_2907" data-name="Path 2907" d="M-1139.481,78.48h-2.25V73.94h2.25l-.011-.01v4.561Z" transform="translate(-55.186 -302.82)" fill="#fff"/>
      <path id="Path_2908" data-name="Path 2908" d="M-962.5-193.382v-2.254h2.241v2.243h-2.252Z" transform="translate(-220.539 -54.379)" fill="#fff"/>
      <path id="Path_2909" data-name="Path 2909" d="M-990.175,13.913V16.19h-2.272l.011.01V13.914l-.011.01h2.283Z" transform="translate(-192.908 -247.514)" fill="#fff"/>
      <path id="Path_2910" data-name="Path 2910" d="M-959.827,76.205h-2.25V73.94h2.25l-.011-.01v2.286Z" transform="translate(-220.94 -302.863)" fill="#fff"/>
      <path id="Path_2911" data-name="Path 2911" d="M-1139.5,163.913v2.254h-2.241v-2.243h2.252Z" transform="translate(-55.174 -385.727)" fill="#fff"/>
      <path id="Path_2912" data-name="Path 2912" d="M-842.339,104.1h2.215v2.239h-2.215Z" transform="translate(-331.461 -330.691)" fill="#fff"/>
      <path id="Path_2913" data-name="Path 2913" d="M-1079.571-135.644v2.228h-2.224v-2.228Z" transform="translate(-110.438 -109.589)" fill="#fff"/>
      <path id="Path_2914" data-name="Path 2914" d="M-840.156-135.6v2.221h-2.236V-135.6Z" transform="translate(-331.412 -109.633)" fill="#fff"/>
    </g>
  </g>
</svg>
