<svg id="Group_117" data-name="Group 117" xmlns="http://www.w3.org/2000/svg" width="20.198" height="19.467" viewBox="0 0 20.198 19.467">
  <path id="Icon_awesome-concierge-bell" data-name="Icon awesome-concierge-bell" d="M9.079,5.494V4.013h.5a.5.5,0,0,0,.5-.5V3a.5.5,0,0,0-.5-.5H6.557a.5.5,0,0,0-.5.5v.5a.5.5,0,0,0,.5.5h.5V5.494a7.057,7.057,0,0,0-6.052,6.981H15.131A7.057,7.057,0,0,0,9.079,5.494Zm6.557,7.99H.5a.5.5,0,0,0-.5.5V15a.5.5,0,0,0,.5.5H15.635a.5.5,0,0,0,.5-.5V13.988A.5.5,0,0,0,15.635,13.484Z" transform="translate(1.918 3.965)" fill="#a7a7a7"/>
  <g id="Group_116" data-name="Group 116">
    <path id="Path_70" data-name="Path 70" d="M-1733.915,169.449c.226-.454.451-.908.68-1.361q.625-1.233,1.255-2.464c.052-.1.117-.2.181-.305l.986.653c-.094.177-.18.347-.272.515q-.867,1.588-1.734,3.177a.144.144,0,0,1-.194.088c-.3-.095-.6-.188-.9-.281Z" transform="translate(1733.915 -165.293)" fill="#a7a7a7"/>
    <path id="Path_71" data-name="Path 71" d="M-1633.636,168.935a.3.3,0,0,0-.016.044.552.552,0,0,1-.494.543,2.106,2.106,0,0,1-1.37-.189,2.249,2.249,0,0,1-.244-.132.1.1,0,0,0-.143.015,1.221,1.221,0,0,1-.72.346,1.5,1.5,0,0,1-.746-.114c-.612-.259-1.219-.531-1.827-.8-.008,0-.013-.014-.029-.033.063-.007.116-.016.169-.019.472-.035.945-.057,1.416-.106a2.008,2.008,0,0,0,.917-.311,1.051,1.051,0,0,0,.446-1.114.724.724,0,0,0-.378-.536,2.506,2.506,0,0,0-1.016-.338,16.63,16.63,0,0,0-2.751-.015c-.076,0-.8.056-1,.078a3.628,3.628,0,0,0-1.613.448c-.185.124-.362.261-.539.4a1.184,1.184,0,0,0-.125.128l.015.025c.135-.038.27-.073.4-.113a7.047,7.047,0,0,1,2.052-.287q1.4-.005,2.792,0a3.784,3.784,0,0,1,.991.1.733.733,0,0,1,.442.279.239.239,0,0,1-.068.379,1.2,1.2,0,0,1-.583.183c-.51.037-1.021.059-1.532.086-.326.017-.652.026-.977.05a3.329,3.329,0,0,0-1.347.444c-.735.4-1.471.8-2.212,1.186a3.45,3.45,0,0,1-1.114.38,3.175,3.175,0,0,1-1.347-.1c-.721-.209-1.435-.441-2.148-.674-.446-.146-.886-.31-1.329-.467-.038-.014-.075-.031-.121-.05.09-.159.176-.311.263-.462q.84-1.452,1.68-2.9c.052-.09.1-.1.184-.057q.528.254,1.062.5a3.572,3.572,0,0,0,.375.14,1.075,1.075,0,0,0,.736-.022c.94-.362,1.879-.73,2.82-1.089.515-.2,1.026-.413,1.555-.566a2.792,2.792,0,0,1,2.059.127c1.465.719,2.93,1.438,4.389,2.171.864.434,1.717.89,2.568,1.349a3.243,3.243,0,0,1,.607.437.465.465,0,0,1-.011.717.989.989,0,0,1-.256.168,1.333,1.333,0,0,1-.848.067c-.3-.064-.588-.16-.881-.242Z" transform="translate(1651.522 -164.047)" fill="#a7a7a7"/>
  </g>
</svg>
