<svg id="Group_624" data-name="Group 624" xmlns="http://www.w3.org/2000/svg" width="24.154" height="24.988" viewBox="0 0 24.154 24.988">
  <path id="Path_2821" data-name="Path 2821" d="M476.047-1037.661h9.022a6.1,6.1,0,0,0-.184.631,1.877,1.877,0,0,0,.862,1.945,1.87,1.87,0,0,0,2.105-.074c.65-.48,1.281-.988,1.92-1.483.049-.038.1-.073.2-.146-.055.206-.093.356-.137.5-.494,1.669-.994,3.336-1.478,5.008a3.113,3.113,0,0,0-.121.848q-.012,5.689-.005,11.379v.344H473.993v-.277q0-5.7,0-11.406a2.5,2.5,0,0,1,.1-.687q.923-3.166,1.863-6.326C475.987-1037.487,476.018-1037.571,476.047-1037.661Zm1.4,8.178c0-.419,0-.813,0-1.208,0-.315-.174-.508-.436-.5s-.42.2-.426.515a4.559,4.559,0,0,0,.716,3.176,1.079,1.079,0,0,1,.083.168.813.813,0,0,1,.046.258c-.015.3-.043.591-.064.887-.1,1.326-.2,2.651-.284,3.978a1.286,1.286,0,0,0,1.283,1.371c.234.006.467,0,.7,0a1.3,1.3,0,0,0,1.334-1.455c-.1-1.362-.18-2.725-.31-4.084a2.4,2.4,0,0,1,.329-1.612,6.736,6.736,0,0,0,.388-.768.713.713,0,0,0,.086-.279c.008-.575.011-1.15,0-1.725a.42.42,0,0,0-.426-.431.433.433,0,0,0-.432.481c-.005.41,0,.819,0,1.221h-.863c0-.4,0-.776,0-1.153,0-.345-.153-.541-.419-.549s-.441.2-.443.552c0,.383,0,.767,0,1.161Zm7.336,1.712c0-1.206,0-2.059,0-2.913,0-.362-.18-.556-.535-.5a3.167,3.167,0,0,0-.965.294,2.656,2.656,0,0,0-1.067,1.184,8.179,8.179,0,0,0-.839,2.849c-.083.653-.089.672.514.941.283.126.316.289.284.563-.117,1.026-.21,2.054-.31,3.082a1.433,1.433,0,0,0,.33,1.021,2.2,2.2,0,0,0,2.6-.013,1.681,1.681,0,0,0,.3-1.27A31.876,31.876,0,0,1,484.781-1027.77Z" transform="translate(-473.993 1043.692)" fill="#939393"/>
  <path id="Path_2822" data-name="Path 2822" d="M600.537-1107.069c-.328,0-.642,0-.955,0a.694.694,0,0,0-.75.708,1.417,1.417,0,0,1-1.527,1.433,2.731,2.731,0,0,0-2.193.764c-.559.516-1.2.95-1.8,1.415a1.042,1.042,0,0,1-1.5-.086,1.033,1.033,0,0,1,.121-1.473q1.409-1.413,2.822-2.822a.454.454,0,0,0,.154-.53.444.444,0,0,0-.479-.273c-.063,0-.126,0-.189,0h-6.18c.1-.066.144-.106.2-.136.835-.457,1.664-.925,2.51-1.361a1.825,1.825,0,0,1,.791-.219c2.948-.015,5.9-.01,8.845-.01.036,0,.071,0,.128.008Z" transform="translate(-579.845 1110.502)" fill="#939393"/>
  <path id="Path_2823" data-name="Path 2823" d="M685.346-1021.011l.989,3.352c.053.181.1.366.162.542a10.332,10.332,0,0,1,.557,3.832c-.044,3.02-.014,6.041-.014,9.061v.372c-.175-.173-.31-.3-.442-.438-.283-.288-.67-.534-.815-.88a3.235,3.235,0,0,1-.037-1.174q0-3.951,0-7.9a1.423,1.423,0,0,0-.008-.269.406.406,0,0,0-.43-.367.407.407,0,0,0-.419.379,1.648,1.648,0,0,0-.006.269q0,4.423,0,8.846a.534.534,0,0,1-.173.423c-.361.35-.708.715-1.1,1.111-.013-.117-.026-.181-.026-.246q0-5.474,0-10.949a1.531,1.531,0,0,1,.055-.425q.8-2.712,1.6-5.422c.012-.04.028-.079.042-.119Z" transform="translate(-668.485 1028.244)" fill="#939393"/>
  <path id="Path_2824" data-name="Path 2824" d="M498.666-1073.742c-.562.563-1.085,1.093-1.618,1.613a.4.4,0,0,1-.26.093q-5.161.007-10.321.007a.41.41,0,0,1-.4-.256,1.329,1.329,0,0,1,0-1.219.41.41,0,0,1,.4-.257q6.023.006,12.046,0C498.545-1073.756,498.579-1073.75,498.666-1073.742Z" transform="translate(-485.057 1077.19)" fill="#939393"/>
  <path id="Path_2825" data-name="Path 2825" d="M776.268-1121.355v4.712h-2.556v-4.712Z" transform="translate(-752.113 1121.355)" fill="#939393"/>
  <path id="Path_2826" data-name="Path 2826" d="M693.313-787.476l1.014-1,1,1Z" transform="translate(-677.508 812.464)" fill="#939393"/>
  <path id="Path_2827" data-name="Path 2827" d="M529.123-887.893h.921c.043.574.087,1.137.128,1.7.07.959.136,1.918.206,2.877.029.4-.133.585-.539.589-.18,0-.359,0-.539,0-.36-.006-.536-.186-.511-.537.077-1.084.159-2.168.238-3.253C529.061-886.974,529.091-887.429,529.123-887.893Z" transform="translate(-524.838 904.717)" fill="#939393"/>
  <path id="Path_2828" data-name="Path 2828" d="M527.768-911.829c-.131.263-.241.506-.375.736a.291.291,0,0,1-.212.107c-.287.012-.575.012-.861,0a.292.292,0,0,1-.213-.105c-.133-.23-.244-.474-.376-.738Z" transform="translate(-522.003 926.928)" fill="#939393"/>
  <path id="Path_2829" data-name="Path 2829" d="M590.1-934.727v4.208h-.829c-.059-.355-.388-.433-.661-.569-.129-.064-.194-.128-.169-.283a7.421,7.421,0,0,1,.764-2.48A1.816,1.816,0,0,1,590.1-934.727Z" transform="translate(-580.191 948.176)" fill="#939393"/>
  <path id="Path_2830" data-name="Path 2830" d="M595.454-864h.943c.055.524.113,1.046.165,1.568.045.446.092.891.125,1.338.026.367-.134.531-.5.537-.17,0-.341,0-.511,0-.368-.005-.537-.168-.505-.531C595.257-862.054,595.357-863.016,595.454-864Z" transform="translate(-586.435 882.548)" fill="#939393"/>
</svg>
